<?xml version="1.0" encoding="utf-8"?>
<svg xmlns="http://www.w3.org/2000/svg" xmlns:xlink="http://www.w3.org/1999/xlink" width="800" height="400" viewBox="0 0 3200 1600">
<defs>
  <clipPath id="clip040">
    <rect x="0" y="0" width="3200" height="1600"/>
  </clipPath>
</defs>
<path clip-path="url(#clip040)" d="M0 1600 L3200 1600 L3200 0 L0 0  Z" fill="#282c34" fill-rule="evenodd" fill-opacity="1"/>
<defs>
  <clipPath id="clip041">
    <rect x="237" y="95" width="2916" height="1401"/>
  </clipPath>
</defs>
<path clip-path="url(#clip040)" d="M237.445 1495.09 L3152.76 1495.09 L3152.76 95.3921 L237.445 95.3921  Z" fill="#21252b" fill-rule="evenodd" fill-opacity="1"/>
<polyline clip-path="url(#clip041)" style="stroke:#adb2b7; stroke-linecap:round; stroke-linejoin:round; stroke-width:2; stroke-opacity:0.1; fill:none" points="334.757,1495.09 334.757,95.3921 "/>
<polyline clip-path="url(#clip041)" style="stroke:#adb2b7; stroke-linecap:round; stroke-linejoin:round; stroke-width:2; stroke-opacity:0.1; fill:none" points="1015.94,1495.09 1015.94,95.3921 "/>
<polyline clip-path="url(#clip041)" style="stroke:#adb2b7; stroke-linecap:round; stroke-linejoin:round; stroke-width:2; stroke-opacity:0.1; fill:none" points="1697.13,1495.09 1697.13,95.3921 "/>
<polyline clip-path="url(#clip041)" style="stroke:#adb2b7; stroke-linecap:round; stroke-linejoin:round; stroke-width:2; stroke-opacity:0.1; fill:none" points="2378.31,1495.09 2378.31,95.3921 "/>
<polyline clip-path="url(#clip041)" style="stroke:#adb2b7; stroke-linecap:round; stroke-linejoin:round; stroke-width:2; stroke-opacity:0.1; fill:none" points="3059.5,1495.09 3059.5,95.3921 "/>
<polyline clip-path="url(#clip041)" style="stroke:#adb2b7; stroke-linecap:round; stroke-linejoin:round; stroke-width:2; stroke-opacity:0.1; fill:none" points="237.445,1346.87 3152.76,1346.87 "/>
<polyline clip-path="url(#clip041)" style="stroke:#adb2b7; stroke-linecap:round; stroke-linejoin:round; stroke-width:2; stroke-opacity:0.1; fill:none" points="237.445,952.676 3152.76,952.676 "/>
<polyline clip-path="url(#clip041)" style="stroke:#adb2b7; stroke-linecap:round; stroke-linejoin:round; stroke-width:2; stroke-opacity:0.1; fill:none" points="237.445,558.485 3152.76,558.485 "/>
<polyline clip-path="url(#clip041)" style="stroke:#adb2b7; stroke-linecap:round; stroke-linejoin:round; stroke-width:2; stroke-opacity:0.1; fill:none" points="237.445,164.294 3152.76,164.294 "/>
<polyline clip-path="url(#clip040)" style="stroke:#adb2b7; stroke-linecap:round; stroke-linejoin:round; stroke-width:4; stroke-opacity:1; fill:none" points="237.445,1495.09 3152.76,1495.09 "/>
<polyline clip-path="url(#clip040)" style="stroke:#adb2b7; stroke-linecap:round; stroke-linejoin:round; stroke-width:4; stroke-opacity:1; fill:none" points="334.757,1495.09 334.757,1476.19 "/>
<polyline clip-path="url(#clip040)" style="stroke:#adb2b7; stroke-linecap:round; stroke-linejoin:round; stroke-width:4; stroke-opacity:1; fill:none" points="1015.94,1495.09 1015.94,1476.19 "/>
<polyline clip-path="url(#clip040)" style="stroke:#adb2b7; stroke-linecap:round; stroke-linejoin:round; stroke-width:4; stroke-opacity:1; fill:none" points="1697.13,1495.09 1697.13,1476.19 "/>
<polyline clip-path="url(#clip040)" style="stroke:#adb2b7; stroke-linecap:round; stroke-linejoin:round; stroke-width:4; stroke-opacity:1; fill:none" points="2378.31,1495.09 2378.31,1476.19 "/>
<polyline clip-path="url(#clip040)" style="stroke:#adb2b7; stroke-linecap:round; stroke-linejoin:round; stroke-width:4; stroke-opacity:1; fill:none" points="3059.5,1495.09 3059.5,1476.19 "/>
<path clip-path="url(#clip040)" d="M206.737 1559.95 L223.056 1559.95 L223.056 1563.89 L201.112 1563.89 L201.112 1559.95 Q203.774 1557.2 208.357 1552.57 Q212.964 1547.92 214.144 1546.57 Q216.39 1544.05 217.269 1542.31 Q218.172 1540.55 218.172 1538.86 Q218.172 1536.11 216.228 1534.37 Q214.307 1532.64 211.205 1532.64 Q209.006 1532.64 206.552 1533.4 Q204.121 1534.17 201.344 1535.72 L201.344 1530.99 Q204.168 1529.86 206.621 1529.28 Q209.075 1528.7 211.112 1528.7 Q216.482 1528.7 219.677 1531.39 Q222.871 1534.07 222.871 1538.56 Q222.871 1540.69 222.061 1542.61 Q221.274 1544.51 219.168 1547.11 Q218.589 1547.78 215.487 1550.99 Q212.385 1554.19 206.737 1559.95 Z" fill="#9eb1be" fill-rule="nonzero" fill-opacity="1" /><path clip-path="url(#clip040)" d="M242.871 1532.41 Q239.26 1532.41 237.431 1535.97 Q235.626 1539.51 235.626 1546.64 Q235.626 1553.75 237.431 1557.31 Q239.26 1560.86 242.871 1560.86 Q246.505 1560.86 248.311 1557.31 Q250.14 1553.75 250.14 1546.64 Q250.14 1539.51 248.311 1535.97 Q246.505 1532.41 242.871 1532.41 M242.871 1528.7 Q248.681 1528.7 251.737 1533.31 Q254.816 1537.89 254.816 1546.64 Q254.816 1555.37 251.737 1559.98 Q248.681 1564.56 242.871 1564.56 Q237.061 1564.56 233.982 1559.98 Q230.927 1555.37 230.927 1546.64 Q230.927 1537.89 233.982 1533.31 Q237.061 1528.7 242.871 1528.7 Z" fill="#9eb1be" fill-rule="nonzero" fill-opacity="1" /><path clip-path="url(#clip040)" d="M267.061 1559.95 L283.38 1559.95 L283.38 1563.89 L261.436 1563.89 L261.436 1559.95 Q264.098 1557.2 268.681 1552.57 Q273.288 1547.92 274.468 1546.57 Q276.714 1544.05 277.593 1542.31 Q278.496 1540.55 278.496 1538.86 Q278.496 1536.11 276.552 1534.37 Q274.63 1532.64 271.528 1532.64 Q269.329 1532.64 266.876 1533.4 Q264.445 1534.17 261.667 1535.72 L261.667 1530.99 Q264.491 1529.86 266.945 1529.28 Q269.399 1528.7 271.436 1528.7 Q276.806 1528.7 280.001 1531.39 Q283.195 1534.07 283.195 1538.56 Q283.195 1540.69 282.385 1542.61 Q281.598 1544.51 279.491 1547.11 Q278.913 1547.78 275.811 1550.99 Q272.709 1554.19 267.061 1559.95 Z" fill="#9eb1be" fill-rule="nonzero" fill-opacity="1" /><path clip-path="url(#clip040)" d="M306.042 1533.4 L294.237 1551.85 L306.042 1551.85 L306.042 1533.4 M304.815 1529.33 L310.695 1529.33 L310.695 1551.85 L315.625 1551.85 L315.625 1555.74 L310.695 1555.74 L310.695 1563.89 L306.042 1563.89 L306.042 1555.74 L290.44 1555.74 L290.44 1551.23 L304.815 1529.33 Z" fill="#9eb1be" fill-rule="nonzero" fill-opacity="1" /><path clip-path="url(#clip040)" d="M320.602 1549 L333.079 1549 L333.079 1552.8 L320.602 1552.8 L320.602 1549 Z" fill="#9eb1be" fill-rule="nonzero" fill-opacity="1" /><path clip-path="url(#clip040)" d="M350.463 1532.41 Q346.852 1532.41 345.023 1535.97 Q343.218 1539.51 343.218 1546.64 Q343.218 1553.75 345.023 1557.31 Q346.852 1560.86 350.463 1560.86 Q354.097 1560.86 355.903 1557.31 Q357.732 1553.75 357.732 1546.64 Q357.732 1539.51 355.903 1535.97 Q354.097 1532.41 350.463 1532.41 M350.463 1528.7 Q356.273 1528.7 359.329 1533.31 Q362.408 1537.89 362.408 1546.64 Q362.408 1555.37 359.329 1559.98 Q356.273 1564.56 350.463 1564.56 Q344.653 1564.56 341.574 1559.98 Q338.519 1555.37 338.519 1546.64 Q338.519 1537.89 341.574 1533.31 Q344.653 1528.7 350.463 1528.7 Z" fill="#9eb1be" fill-rule="nonzero" fill-opacity="1" /><path clip-path="url(#clip040)" d="M371.435 1559.95 L379.074 1559.95 L379.074 1533.59 L370.764 1535.25 L370.764 1530.99 L379.028 1529.33 L383.704 1529.33 L383.704 1559.95 L391.343 1559.95 L391.343 1563.89 L371.435 1563.89 L371.435 1559.95 Z" fill="#9eb1be" fill-rule="nonzero" fill-opacity="1" /><path clip-path="url(#clip040)" d="M398.032 1549 L410.509 1549 L410.509 1552.8 L398.032 1552.8 L398.032 1549 Z" fill="#9eb1be" fill-rule="nonzero" fill-opacity="1" /><path clip-path="url(#clip040)" d="M427.893 1532.41 Q424.282 1532.41 422.454 1535.97 Q420.648 1539.51 420.648 1546.64 Q420.648 1553.75 422.454 1557.31 Q424.282 1560.86 427.893 1560.86 Q431.528 1560.86 433.333 1557.31 Q435.162 1553.75 435.162 1546.64 Q435.162 1539.51 433.333 1535.97 Q431.528 1532.41 427.893 1532.41 M427.893 1528.7 Q433.703 1528.7 436.759 1533.31 Q439.838 1537.89 439.838 1546.64 Q439.838 1555.37 436.759 1559.98 Q433.703 1564.56 427.893 1564.56 Q422.083 1564.56 419.004 1559.98 Q415.949 1555.37 415.949 1546.64 Q415.949 1537.89 419.004 1533.31 Q422.083 1528.7 427.893 1528.7 Z" fill="#9eb1be" fill-rule="nonzero" fill-opacity="1" /><path clip-path="url(#clip040)" d="M452.083 1559.95 L468.402 1559.95 L468.402 1563.89 L446.458 1563.89 L446.458 1559.95 Q449.12 1557.2 453.703 1552.57 Q458.31 1547.92 459.49 1546.57 Q461.736 1544.05 462.615 1542.31 Q463.518 1540.55 463.518 1538.86 Q463.518 1536.11 461.574 1534.37 Q459.652 1532.64 456.551 1532.64 Q454.352 1532.64 451.898 1533.4 Q449.467 1534.17 446.69 1535.72 L446.69 1530.99 Q449.514 1529.86 451.967 1529.28 Q454.421 1528.7 456.458 1528.7 Q461.828 1528.7 465.023 1531.39 Q468.217 1534.07 468.217 1538.56 Q468.217 1540.69 467.407 1542.61 Q466.62 1544.51 464.513 1547.11 Q463.935 1547.78 460.833 1550.99 Q457.731 1554.19 452.083 1559.95 Z" fill="#9eb1be" fill-rule="nonzero" fill-opacity="1" /><path clip-path="url(#clip040)" d="M887.216 1559.95 L903.536 1559.95 L903.536 1563.89 L881.591 1563.89 L881.591 1559.95 Q884.253 1557.2 888.837 1552.57 Q893.443 1547.92 894.624 1546.57 Q896.869 1544.05 897.749 1542.31 Q898.651 1540.55 898.651 1538.86 Q898.651 1536.11 896.707 1534.37 Q894.786 1532.64 891.684 1532.64 Q889.485 1532.64 887.031 1533.4 Q884.601 1534.17 881.823 1535.72 L881.823 1530.99 Q884.647 1529.86 887.101 1529.28 Q889.554 1528.7 891.591 1528.7 Q896.962 1528.7 900.156 1531.39 Q903.351 1534.07 903.351 1538.56 Q903.351 1540.69 902.54 1542.61 Q901.753 1544.51 899.647 1547.11 Q899.068 1547.78 895.966 1550.99 Q892.864 1554.19 887.216 1559.95 Z" fill="#9eb1be" fill-rule="nonzero" fill-opacity="1" /><path clip-path="url(#clip040)" d="M923.35 1532.41 Q919.739 1532.41 917.911 1535.97 Q916.105 1539.51 916.105 1546.64 Q916.105 1553.75 917.911 1557.31 Q919.739 1560.86 923.35 1560.86 Q926.985 1560.86 928.79 1557.31 Q930.619 1553.75 930.619 1546.64 Q930.619 1539.51 928.79 1535.97 Q926.985 1532.41 923.35 1532.41 M923.35 1528.7 Q929.161 1528.7 932.216 1533.31 Q935.295 1537.89 935.295 1546.64 Q935.295 1555.37 932.216 1559.98 Q929.161 1564.56 923.35 1564.56 Q917.54 1564.56 914.462 1559.98 Q911.406 1555.37 911.406 1546.64 Q911.406 1537.89 914.462 1533.31 Q917.54 1528.7 923.35 1528.7 Z" fill="#9eb1be" fill-rule="nonzero" fill-opacity="1" /><path clip-path="url(#clip040)" d="M947.54 1559.95 L963.859 1559.95 L963.859 1563.89 L941.915 1563.89 L941.915 1559.95 Q944.577 1557.2 949.16 1552.57 Q953.767 1547.92 954.947 1546.57 Q957.193 1544.05 958.072 1542.31 Q958.975 1540.55 958.975 1538.86 Q958.975 1536.11 957.031 1534.37 Q955.11 1532.64 952.008 1532.64 Q949.809 1532.64 947.355 1533.4 Q944.924 1534.17 942.147 1535.72 L942.147 1530.99 Q944.971 1529.86 947.424 1529.28 Q949.878 1528.7 951.915 1528.7 Q957.285 1528.7 960.48 1531.39 Q963.674 1534.07 963.674 1538.56 Q963.674 1540.69 962.864 1542.61 Q962.077 1544.51 959.971 1547.11 Q959.392 1547.78 956.29 1550.99 Q953.188 1554.19 947.54 1559.95 Z" fill="#9eb1be" fill-rule="nonzero" fill-opacity="1" /><path clip-path="url(#clip040)" d="M986.521 1533.4 L974.716 1551.85 L986.521 1551.85 L986.521 1533.4 M985.295 1529.33 L991.174 1529.33 L991.174 1551.85 L996.105 1551.85 L996.105 1555.74 L991.174 1555.74 L991.174 1563.89 L986.521 1563.89 L986.521 1555.74 L970.92 1555.74 L970.92 1551.23 L985.295 1529.33 Z" fill="#9eb1be" fill-rule="nonzero" fill-opacity="1" /><path clip-path="url(#clip040)" d="M1001.08 1549 L1013.56 1549 L1013.56 1552.8 L1001.08 1552.8 L1001.08 1549 Z" fill="#9eb1be" fill-rule="nonzero" fill-opacity="1" /><path clip-path="url(#clip040)" d="M1030.94 1532.41 Q1027.33 1532.41 1025.5 1535.97 Q1023.7 1539.51 1023.7 1546.64 Q1023.7 1553.75 1025.5 1557.31 Q1027.33 1560.86 1030.94 1560.86 Q1034.58 1560.86 1036.38 1557.31 Q1038.21 1553.75 1038.21 1546.64 Q1038.21 1539.51 1036.38 1535.97 Q1034.58 1532.41 1030.94 1532.41 M1030.94 1528.7 Q1036.75 1528.7 1039.81 1533.31 Q1042.89 1537.89 1042.89 1546.64 Q1042.89 1555.37 1039.81 1559.98 Q1036.75 1564.56 1030.94 1564.56 Q1025.13 1564.56 1022.05 1559.98 Q1019 1555.37 1019 1546.64 Q1019 1537.89 1022.05 1533.31 Q1025.13 1528.7 1030.94 1528.7 Z" fill="#9eb1be" fill-rule="nonzero" fill-opacity="1" /><path clip-path="url(#clip040)" d="M1051.91 1559.95 L1059.55 1559.95 L1059.55 1533.59 L1051.24 1535.25 L1051.24 1530.99 L1059.51 1529.33 L1064.18 1529.33 L1064.18 1559.95 L1071.82 1559.95 L1071.82 1563.89 L1051.91 1563.89 L1051.91 1559.95 Z" fill="#9eb1be" fill-rule="nonzero" fill-opacity="1" /><path clip-path="url(#clip040)" d="M1078.51 1549 L1090.99 1549 L1090.99 1552.8 L1078.51 1552.8 L1078.51 1549 Z" fill="#9eb1be" fill-rule="nonzero" fill-opacity="1" /><path clip-path="url(#clip040)" d="M1108.37 1532.41 Q1104.76 1532.41 1102.93 1535.97 Q1101.13 1539.51 1101.13 1546.64 Q1101.13 1553.75 1102.93 1557.31 Q1104.76 1560.86 1108.37 1560.86 Q1112.01 1560.86 1113.81 1557.31 Q1115.64 1553.75 1115.64 1546.64 Q1115.64 1539.51 1113.81 1535.97 Q1112.01 1532.41 1108.37 1532.41 M1108.37 1528.7 Q1114.18 1528.7 1117.24 1533.31 Q1120.32 1537.89 1120.32 1546.64 Q1120.32 1555.37 1117.24 1559.98 Q1114.18 1564.56 1108.37 1564.56 Q1102.56 1564.56 1099.48 1559.98 Q1096.43 1555.37 1096.43 1546.64 Q1096.43 1537.89 1099.48 1533.31 Q1102.56 1528.7 1108.37 1528.7 Z" fill="#9eb1be" fill-rule="nonzero" fill-opacity="1" /><path clip-path="url(#clip040)" d="M1128.67 1563.17 L1128.67 1558.91 Q1130.43 1559.74 1132.24 1560.18 Q1134.04 1560.62 1135.78 1560.62 Q1140.41 1560.62 1142.84 1557.52 Q1145.29 1554.4 1145.64 1548.05 Q1144.3 1550.05 1142.24 1551.11 Q1140.18 1552.17 1137.68 1552.17 Q1132.49 1552.17 1129.46 1549.05 Q1126.45 1545.9 1126.45 1540.46 Q1126.45 1535.14 1129.6 1531.92 Q1132.75 1528.7 1137.98 1528.7 Q1143.97 1528.7 1147.12 1533.31 Q1150.29 1537.89 1150.29 1546.64 Q1150.29 1554.81 1146.4 1559.7 Q1142.54 1564.56 1135.99 1564.56 Q1134.23 1564.56 1132.42 1564.21 Q1130.62 1563.86 1128.67 1563.17 M1137.98 1548.52 Q1141.13 1548.52 1142.96 1546.36 Q1144.81 1544.21 1144.81 1540.46 Q1144.81 1536.74 1142.96 1534.58 Q1141.13 1532.41 1137.98 1532.41 Q1134.83 1532.41 1132.98 1534.58 Q1131.15 1536.74 1131.15 1540.46 Q1131.15 1544.21 1132.98 1546.36 Q1134.83 1548.52 1137.98 1548.52 Z" fill="#9eb1be" fill-rule="nonzero" fill-opacity="1" /><path clip-path="url(#clip040)" d="M1568.23 1559.95 L1584.55 1559.95 L1584.55 1563.89 L1562.6 1563.89 L1562.6 1559.95 Q1565.27 1557.2 1569.85 1552.57 Q1574.45 1547.92 1575.64 1546.57 Q1577.88 1544.05 1578.76 1542.31 Q1579.66 1540.55 1579.66 1538.86 Q1579.66 1536.11 1577.72 1534.37 Q1575.8 1532.64 1572.7 1532.64 Q1570.5 1532.64 1568.04 1533.4 Q1565.61 1534.17 1562.83 1535.72 L1562.83 1530.99 Q1565.66 1529.86 1568.11 1529.28 Q1570.57 1528.7 1572.6 1528.7 Q1577.97 1528.7 1581.17 1531.39 Q1584.36 1534.07 1584.36 1538.56 Q1584.36 1540.69 1583.55 1542.61 Q1582.77 1544.51 1580.66 1547.11 Q1580.08 1547.78 1576.98 1550.99 Q1573.88 1554.19 1568.23 1559.95 Z" fill="#9eb1be" fill-rule="nonzero" fill-opacity="1" /><path clip-path="url(#clip040)" d="M1604.36 1532.41 Q1600.75 1532.41 1598.92 1535.97 Q1597.12 1539.51 1597.12 1546.64 Q1597.12 1553.75 1598.92 1557.31 Q1600.75 1560.86 1604.36 1560.86 Q1608 1560.86 1609.8 1557.31 Q1611.63 1553.75 1611.63 1546.64 Q1611.63 1539.51 1609.8 1535.97 Q1608 1532.41 1604.36 1532.41 M1604.36 1528.7 Q1610.17 1528.7 1613.23 1533.31 Q1616.31 1537.89 1616.31 1546.64 Q1616.31 1555.37 1613.23 1559.98 Q1610.17 1564.56 1604.36 1564.56 Q1598.55 1564.56 1595.47 1559.98 Q1592.42 1555.37 1592.42 1546.64 Q1592.42 1537.89 1595.47 1533.31 Q1598.55 1528.7 1604.36 1528.7 Z" fill="#9eb1be" fill-rule="nonzero" fill-opacity="1" /><path clip-path="url(#clip040)" d="M1628.55 1559.95 L1644.87 1559.95 L1644.87 1563.89 L1622.93 1563.89 L1622.93 1559.95 Q1625.59 1557.2 1630.17 1552.57 Q1634.78 1547.92 1635.96 1546.57 Q1638.2 1544.05 1639.08 1542.31 Q1639.99 1540.55 1639.99 1538.86 Q1639.99 1536.11 1638.04 1534.37 Q1636.12 1532.64 1633.02 1532.64 Q1630.82 1532.64 1628.37 1533.4 Q1625.94 1534.17 1623.16 1535.72 L1623.16 1530.99 Q1625.98 1529.86 1628.44 1529.28 Q1630.89 1528.7 1632.93 1528.7 Q1638.3 1528.7 1641.49 1531.39 Q1644.69 1534.07 1644.69 1538.56 Q1644.69 1540.69 1643.88 1542.61 Q1643.09 1544.51 1640.98 1547.11 Q1640.4 1547.78 1637.3 1550.99 Q1634.2 1554.19 1628.55 1559.95 Z" fill="#9eb1be" fill-rule="nonzero" fill-opacity="1" /><path clip-path="url(#clip040)" d="M1667.53 1533.4 L1655.73 1551.85 L1667.53 1551.85 L1667.53 1533.4 M1666.31 1529.33 L1672.19 1529.33 L1672.19 1551.85 L1677.12 1551.85 L1677.12 1555.74 L1672.19 1555.74 L1672.19 1563.89 L1667.53 1563.89 L1667.53 1555.74 L1651.93 1555.74 L1651.93 1551.23 L1666.31 1529.33 Z" fill="#9eb1be" fill-rule="nonzero" fill-opacity="1" /><path clip-path="url(#clip040)" d="M1682.09 1549 L1694.57 1549 L1694.57 1552.8 L1682.09 1552.8 L1682.09 1549 Z" fill="#9eb1be" fill-rule="nonzero" fill-opacity="1" /><path clip-path="url(#clip040)" d="M1711.95 1532.41 Q1708.34 1532.41 1706.51 1535.97 Q1704.71 1539.51 1704.71 1546.64 Q1704.71 1553.75 1706.51 1557.31 Q1708.34 1560.86 1711.95 1560.86 Q1715.59 1560.86 1717.39 1557.31 Q1719.22 1553.75 1719.22 1546.64 Q1719.22 1539.51 1717.39 1535.97 Q1715.59 1532.41 1711.95 1532.41 M1711.95 1528.7 Q1717.76 1528.7 1720.82 1533.31 Q1723.9 1537.89 1723.9 1546.64 Q1723.9 1555.37 1720.82 1559.98 Q1717.76 1564.56 1711.95 1564.56 Q1706.14 1564.56 1703.07 1559.98 Q1700.01 1555.37 1700.01 1546.64 Q1700.01 1537.89 1703.07 1533.31 Q1706.14 1528.7 1711.95 1528.7 Z" fill="#9eb1be" fill-rule="nonzero" fill-opacity="1" /><path clip-path="url(#clip040)" d="M1732.93 1559.95 L1740.57 1559.95 L1740.57 1533.59 L1732.25 1535.25 L1732.25 1530.99 L1740.52 1529.33 L1745.19 1529.33 L1745.19 1559.95 L1752.83 1559.95 L1752.83 1563.89 L1732.93 1563.89 L1732.93 1559.95 Z" fill="#9eb1be" fill-rule="nonzero" fill-opacity="1" /><path clip-path="url(#clip040)" d="M1759.52 1549 L1772 1549 L1772 1552.8 L1759.52 1552.8 L1759.52 1549 Z" fill="#9eb1be" fill-rule="nonzero" fill-opacity="1" /><path clip-path="url(#clip040)" d="M1780.19 1559.95 L1787.83 1559.95 L1787.83 1533.59 L1779.52 1535.25 L1779.52 1530.99 L1787.79 1529.33 L1792.46 1529.33 L1792.46 1559.95 L1800.1 1559.95 L1800.1 1563.89 L1780.19 1563.89 L1780.19 1559.95 Z" fill="#9eb1be" fill-rule="nonzero" fill-opacity="1" /><path clip-path="url(#clip040)" d="M1820.12 1544.74 Q1816.98 1544.74 1815.12 1546.9 Q1813.3 1549.05 1813.3 1552.8 Q1813.3 1556.53 1815.12 1558.7 Q1816.98 1560.86 1820.12 1560.86 Q1823.27 1560.86 1825.1 1558.7 Q1826.95 1556.53 1826.95 1552.8 Q1826.95 1549.05 1825.1 1546.9 Q1823.27 1544.74 1820.12 1544.74 M1829.41 1530.09 L1829.41 1534.35 Q1827.65 1533.52 1825.84 1533.08 Q1824.06 1532.64 1822.3 1532.64 Q1817.67 1532.64 1815.22 1535.76 Q1812.79 1538.89 1812.44 1545.21 Q1813.81 1543.19 1815.87 1542.13 Q1817.93 1541.04 1820.4 1541.04 Q1825.61 1541.04 1828.62 1544.21 Q1831.65 1547.36 1831.65 1552.8 Q1831.65 1558.12 1828.5 1561.34 Q1825.36 1564.56 1820.12 1564.56 Q1814.13 1564.56 1810.96 1559.98 Q1807.79 1555.37 1807.79 1546.64 Q1807.79 1538.45 1811.68 1533.59 Q1815.56 1528.7 1822.12 1528.7 Q1823.87 1528.7 1825.66 1529.05 Q1827.46 1529.4 1829.41 1530.09 Z" fill="#9eb1be" fill-rule="nonzero" fill-opacity="1" /><path clip-path="url(#clip040)" d="M2249.82 1559.95 L2266.14 1559.95 L2266.14 1563.89 L2244.19 1563.89 L2244.19 1559.95 Q2246.86 1557.2 2251.44 1552.57 Q2256.05 1547.92 2257.23 1546.57 Q2259.47 1544.05 2260.35 1542.31 Q2261.25 1540.55 2261.25 1538.86 Q2261.25 1536.11 2259.31 1534.37 Q2257.39 1532.64 2254.29 1532.64 Q2252.09 1532.64 2249.63 1533.4 Q2247.2 1534.17 2244.42 1535.72 L2244.42 1530.99 Q2247.25 1529.86 2249.7 1529.28 Q2252.16 1528.7 2254.19 1528.7 Q2259.56 1528.7 2262.76 1531.39 Q2265.95 1534.07 2265.95 1538.56 Q2265.95 1540.69 2265.14 1542.61 Q2264.36 1544.51 2262.25 1547.11 Q2261.67 1547.78 2258.57 1550.99 Q2255.47 1554.19 2249.82 1559.95 Z" fill="#9eb1be" fill-rule="nonzero" fill-opacity="1" /><path clip-path="url(#clip040)" d="M2285.95 1532.41 Q2282.34 1532.41 2280.51 1535.97 Q2278.71 1539.51 2278.71 1546.64 Q2278.71 1553.75 2280.51 1557.31 Q2282.34 1560.86 2285.95 1560.86 Q2289.59 1560.86 2291.39 1557.31 Q2293.22 1553.75 2293.22 1546.64 Q2293.22 1539.51 2291.39 1535.97 Q2289.59 1532.41 2285.95 1532.41 M2285.95 1528.7 Q2291.76 1528.7 2294.82 1533.31 Q2297.9 1537.89 2297.9 1546.64 Q2297.9 1555.37 2294.82 1559.98 Q2291.76 1564.56 2285.95 1564.56 Q2280.14 1564.56 2277.06 1559.98 Q2274.01 1555.37 2274.01 1546.64 Q2274.01 1537.89 2277.06 1533.31 Q2280.14 1528.7 2285.95 1528.7 Z" fill="#9eb1be" fill-rule="nonzero" fill-opacity="1" /><path clip-path="url(#clip040)" d="M2310.14 1559.95 L2326.46 1559.95 L2326.46 1563.89 L2304.52 1563.89 L2304.52 1559.95 Q2307.18 1557.2 2311.76 1552.57 Q2316.37 1547.92 2317.55 1546.57 Q2319.79 1544.05 2320.67 1542.31 Q2321.58 1540.55 2321.58 1538.86 Q2321.58 1536.11 2319.63 1534.37 Q2317.71 1532.64 2314.61 1532.64 Q2312.41 1532.64 2309.96 1533.4 Q2307.53 1534.17 2304.75 1535.72 L2304.75 1530.99 Q2307.57 1529.86 2310.03 1529.28 Q2312.48 1528.7 2314.52 1528.7 Q2319.89 1528.7 2323.08 1531.39 Q2326.28 1534.07 2326.28 1538.56 Q2326.28 1540.69 2325.47 1542.61 Q2324.68 1544.51 2322.57 1547.11 Q2321.99 1547.78 2318.89 1550.99 Q2315.79 1554.19 2310.14 1559.95 Z" fill="#9eb1be" fill-rule="nonzero" fill-opacity="1" /><path clip-path="url(#clip040)" d="M2349.12 1533.4 L2337.32 1551.85 L2349.12 1551.85 L2349.12 1533.4 M2347.9 1529.33 L2353.78 1529.33 L2353.78 1551.85 L2358.71 1551.85 L2358.71 1555.74 L2353.78 1555.74 L2353.78 1563.89 L2349.12 1563.89 L2349.12 1555.74 L2333.52 1555.74 L2333.52 1551.23 L2347.9 1529.33 Z" fill="#9eb1be" fill-rule="nonzero" fill-opacity="1" /><path clip-path="url(#clip040)" d="M2363.68 1549 L2376.16 1549 L2376.16 1552.8 L2363.68 1552.8 L2363.68 1549 Z" fill="#9eb1be" fill-rule="nonzero" fill-opacity="1" /><path clip-path="url(#clip040)" d="M2393.54 1532.41 Q2389.93 1532.41 2388.1 1535.97 Q2386.3 1539.51 2386.3 1546.64 Q2386.3 1553.75 2388.1 1557.31 Q2389.93 1560.86 2393.54 1560.86 Q2397.18 1560.86 2398.98 1557.31 Q2400.81 1553.75 2400.81 1546.64 Q2400.81 1539.51 2398.98 1535.97 Q2397.18 1532.41 2393.54 1532.41 M2393.54 1528.7 Q2399.35 1528.7 2402.41 1533.31 Q2405.49 1537.89 2405.49 1546.64 Q2405.49 1555.37 2402.41 1559.98 Q2399.35 1564.56 2393.54 1564.56 Q2387.73 1564.56 2384.66 1559.98 Q2381.6 1555.37 2381.6 1546.64 Q2381.6 1537.89 2384.66 1533.31 Q2387.73 1528.7 2393.54 1528.7 Z" fill="#9eb1be" fill-rule="nonzero" fill-opacity="1" /><path clip-path="url(#clip040)" d="M2414.52 1559.95 L2422.16 1559.95 L2422.16 1533.59 L2413.85 1535.25 L2413.85 1530.99 L2422.11 1529.33 L2426.79 1529.33 L2426.79 1559.95 L2434.42 1559.95 L2434.42 1563.89 L2414.52 1563.89 L2414.52 1559.95 Z" fill="#9eb1be" fill-rule="nonzero" fill-opacity="1" /><path clip-path="url(#clip040)" d="M2441.11 1549 L2453.59 1549 L2453.59 1552.8 L2441.11 1552.8 L2441.11 1549 Z" fill="#9eb1be" fill-rule="nonzero" fill-opacity="1" /><path clip-path="url(#clip040)" d="M2465 1559.95 L2481.32 1559.95 L2481.32 1563.89 L2459.38 1563.89 L2459.38 1559.95 Q2462.04 1557.2 2466.62 1552.57 Q2471.23 1547.92 2472.41 1546.57 Q2474.66 1544.05 2475.53 1542.31 Q2476.44 1540.55 2476.44 1538.86 Q2476.44 1536.11 2474.49 1534.37 Q2472.57 1532.64 2469.47 1532.64 Q2467.27 1532.64 2464.82 1533.4 Q2462.39 1534.17 2459.61 1535.72 L2459.61 1530.99 Q2462.43 1529.86 2464.89 1529.28 Q2467.34 1528.7 2469.38 1528.7 Q2474.75 1528.7 2477.94 1531.39 Q2481.14 1534.07 2481.14 1538.56 Q2481.14 1540.69 2480.33 1542.61 Q2479.54 1544.51 2477.43 1547.11 Q2476.85 1547.78 2473.75 1550.99 Q2470.65 1554.19 2465 1559.95 Z" fill="#9eb1be" fill-rule="nonzero" fill-opacity="1" /><path clip-path="url(#clip040)" d="M2505.3 1545.25 Q2508.66 1545.97 2510.53 1548.24 Q2512.43 1550.51 2512.43 1553.84 Q2512.43 1558.96 2508.91 1561.76 Q2505.4 1564.56 2498.91 1564.56 Q2496.74 1564.56 2494.42 1564.12 Q2492.13 1563.7 2489.68 1562.85 L2489.68 1558.33 Q2491.62 1559.47 2493.94 1560.05 Q2496.25 1560.62 2498.78 1560.62 Q2503.17 1560.62 2505.47 1558.89 Q2507.78 1557.15 2507.78 1553.84 Q2507.78 1550.79 2505.63 1549.07 Q2503.5 1547.34 2499.68 1547.34 L2495.65 1547.34 L2495.65 1543.49 L2499.86 1543.49 Q2503.31 1543.49 2505.14 1542.13 Q2506.97 1540.74 2506.97 1538.15 Q2506.97 1535.49 2505.07 1534.07 Q2503.2 1532.64 2499.68 1532.64 Q2497.76 1532.64 2495.56 1533.05 Q2493.36 1533.47 2490.72 1534.35 L2490.72 1530.18 Q2493.38 1529.44 2495.7 1529.07 Q2498.03 1528.7 2500.09 1528.7 Q2505.42 1528.7 2508.52 1531.13 Q2511.62 1533.54 2511.62 1537.66 Q2511.62 1540.53 2509.98 1542.52 Q2508.34 1544.49 2505.3 1545.25 Z" fill="#9eb1be" fill-rule="nonzero" fill-opacity="1" /><path clip-path="url(#clip040)" d="M2930.68 1559.95 L2947 1559.95 L2947 1563.89 L2925.05 1563.89 L2925.05 1559.95 Q2927.72 1557.2 2932.3 1552.57 Q2936.91 1547.92 2938.09 1546.57 Q2940.33 1544.05 2941.21 1542.31 Q2942.11 1540.55 2942.11 1538.86 Q2942.11 1536.11 2940.17 1534.37 Q2938.25 1532.64 2935.15 1532.64 Q2932.95 1532.64 2930.49 1533.4 Q2928.06 1534.17 2925.29 1535.72 L2925.29 1530.99 Q2928.11 1529.86 2930.56 1529.28 Q2933.02 1528.7 2935.05 1528.7 Q2940.42 1528.7 2943.62 1531.39 Q2946.81 1534.07 2946.81 1538.56 Q2946.81 1540.69 2946 1542.61 Q2945.22 1544.51 2943.11 1547.11 Q2942.53 1547.78 2939.43 1550.99 Q2936.33 1554.19 2930.68 1559.95 Z" fill="#9eb1be" fill-rule="nonzero" fill-opacity="1" /><path clip-path="url(#clip040)" d="M2966.81 1532.41 Q2963.2 1532.41 2961.37 1535.97 Q2959.57 1539.51 2959.57 1546.64 Q2959.57 1553.75 2961.37 1557.31 Q2963.2 1560.86 2966.81 1560.86 Q2970.45 1560.86 2972.25 1557.31 Q2974.08 1553.75 2974.08 1546.64 Q2974.08 1539.51 2972.25 1535.97 Q2970.45 1532.41 2966.81 1532.41 M2966.81 1528.7 Q2972.62 1528.7 2975.68 1533.31 Q2978.76 1537.89 2978.76 1546.64 Q2978.76 1555.37 2975.68 1559.98 Q2972.62 1564.56 2966.81 1564.56 Q2961 1564.56 2957.92 1559.98 Q2954.87 1555.37 2954.87 1546.64 Q2954.87 1537.89 2957.92 1533.31 Q2961 1528.7 2966.81 1528.7 Z" fill="#9eb1be" fill-rule="nonzero" fill-opacity="1" /><path clip-path="url(#clip040)" d="M2991 1559.95 L3007.32 1559.95 L3007.32 1563.89 L2985.38 1563.89 L2985.38 1559.95 Q2988.04 1557.2 2992.62 1552.57 Q2997.23 1547.92 2998.41 1546.57 Q3000.66 1544.05 3001.54 1542.31 Q3002.44 1540.55 3002.44 1538.86 Q3002.44 1536.11 3000.49 1534.37 Q2998.57 1532.64 2995.47 1532.64 Q2993.27 1532.64 2990.82 1533.4 Q2988.39 1534.17 2985.61 1535.72 L2985.61 1530.99 Q2988.43 1529.86 2990.89 1529.28 Q2993.34 1528.7 2995.38 1528.7 Q3000.75 1528.7 3003.94 1531.39 Q3007.14 1534.07 3007.14 1538.56 Q3007.14 1540.69 3006.33 1542.61 Q3005.54 1544.51 3003.43 1547.11 Q3002.86 1547.78 2999.75 1550.99 Q2996.65 1554.19 2991 1559.95 Z" fill="#9eb1be" fill-rule="nonzero" fill-opacity="1" /><path clip-path="url(#clip040)" d="M3029.98 1533.4 L3018.18 1551.85 L3029.98 1551.85 L3029.98 1533.4 M3028.76 1529.33 L3034.64 1529.33 L3034.64 1551.85 L3039.57 1551.85 L3039.57 1555.74 L3034.64 1555.74 L3034.64 1563.89 L3029.98 1563.89 L3029.98 1555.74 L3014.38 1555.74 L3014.38 1551.23 L3028.76 1529.33 Z" fill="#9eb1be" fill-rule="nonzero" fill-opacity="1" /><path clip-path="url(#clip040)" d="M3044.54 1549 L3057.02 1549 L3057.02 1552.8 L3044.54 1552.8 L3044.54 1549 Z" fill="#9eb1be" fill-rule="nonzero" fill-opacity="1" /><path clip-path="url(#clip040)" d="M3074.41 1532.41 Q3070.79 1532.41 3068.97 1535.97 Q3067.16 1539.51 3067.16 1546.64 Q3067.16 1553.75 3068.97 1557.31 Q3070.79 1560.86 3074.41 1560.86 Q3078.04 1560.86 3079.85 1557.31 Q3081.67 1553.75 3081.67 1546.64 Q3081.67 1539.51 3079.85 1535.97 Q3078.04 1532.41 3074.41 1532.41 M3074.41 1528.7 Q3080.22 1528.7 3083.27 1533.31 Q3086.35 1537.89 3086.35 1546.64 Q3086.35 1555.37 3083.27 1559.98 Q3080.22 1564.56 3074.41 1564.56 Q3068.6 1564.56 3065.52 1559.98 Q3062.46 1555.37 3062.46 1546.64 Q3062.46 1537.89 3065.52 1533.31 Q3068.6 1528.7 3074.41 1528.7 Z" fill="#9eb1be" fill-rule="nonzero" fill-opacity="1" /><path clip-path="url(#clip040)" d="M3095.38 1559.95 L3103.02 1559.95 L3103.02 1533.59 L3094.71 1535.25 L3094.71 1530.99 L3102.97 1529.33 L3107.65 1529.33 L3107.65 1559.95 L3115.29 1559.95 L3115.29 1563.89 L3095.38 1563.89 L3095.38 1559.95 Z" fill="#9eb1be" fill-rule="nonzero" fill-opacity="1" /><path clip-path="url(#clip040)" d="M3121.97 1549 L3134.45 1549 L3134.45 1552.8 L3121.97 1552.8 L3121.97 1549 Z" fill="#9eb1be" fill-rule="nonzero" fill-opacity="1" /><path clip-path="url(#clip040)" d="M3156 1545.25 Q3159.36 1545.97 3161.23 1548.24 Q3163.13 1550.51 3163.13 1553.84 Q3163.13 1558.96 3159.61 1561.76 Q3156.1 1564.56 3149.61 1564.56 Q3147.44 1564.56 3145.12 1564.12 Q3142.83 1563.7 3140.38 1562.85 L3140.38 1558.33 Q3142.32 1559.47 3144.64 1560.05 Q3146.95 1560.62 3149.47 1560.62 Q3153.87 1560.62 3156.16 1558.89 Q3158.48 1557.15 3158.48 1553.84 Q3158.48 1550.79 3156.33 1549.07 Q3154.2 1547.34 3150.38 1547.34 L3146.35 1547.34 L3146.35 1543.49 L3150.56 1543.49 Q3154.01 1543.49 3155.84 1542.13 Q3157.67 1540.74 3157.67 1538.15 Q3157.67 1535.49 3155.77 1534.07 Q3153.9 1532.64 3150.38 1532.64 Q3148.46 1532.64 3146.26 1533.05 Q3144.06 1533.47 3141.42 1534.35 L3141.42 1530.18 Q3144.08 1529.44 3146.4 1529.07 Q3148.73 1528.7 3150.79 1528.7 Q3156.12 1528.7 3159.22 1531.13 Q3162.32 1533.54 3162.32 1537.66 Q3162.32 1540.53 3160.68 1542.52 Q3159.03 1544.49 3156 1545.25 Z" fill="#9eb1be" fill-rule="nonzero" fill-opacity="1" /><path clip-path="url(#clip040)" d="M3182 1532.41 Q3178.39 1532.41 3176.56 1535.97 Q3174.75 1539.51 3174.75 1546.64 Q3174.75 1553.75 3176.56 1557.31 Q3178.39 1560.86 3182 1560.86 Q3185.63 1560.86 3187.44 1557.31 Q3189.27 1553.75 3189.27 1546.64 Q3189.27 1539.51 3187.44 1535.97 Q3185.63 1532.41 3182 1532.41 M3182 1528.7 Q3187.81 1528.7 3190.86 1533.31 Q3193.94 1537.89 3193.94 1546.64 Q3193.94 1555.37 3190.86 1559.98 Q3187.81 1564.56 3182 1564.56 Q3176.19 1564.56 3173.11 1559.98 Q3170.05 1555.37 3170.05 1546.64 Q3170.05 1537.89 3173.11 1533.31 Q3176.19 1528.7 3182 1528.7 Z" fill="#9eb1be" fill-rule="nonzero" fill-opacity="1" /><polyline clip-path="url(#clip040)" style="stroke:#adb2b7; stroke-linecap:round; stroke-linejoin:round; stroke-width:4; stroke-opacity:1; fill:none" points="237.445,1495.09 237.445,95.3921 "/>
<polyline clip-path="url(#clip040)" style="stroke:#adb2b7; stroke-linecap:round; stroke-linejoin:round; stroke-width:4; stroke-opacity:1; fill:none" points="237.445,1346.87 256.343,1346.87 "/>
<polyline clip-path="url(#clip040)" style="stroke:#adb2b7; stroke-linecap:round; stroke-linejoin:round; stroke-width:4; stroke-opacity:1; fill:none" points="237.445,952.676 256.343,952.676 "/>
<polyline clip-path="url(#clip040)" style="stroke:#adb2b7; stroke-linecap:round; stroke-linejoin:round; stroke-width:4; stroke-opacity:1; fill:none" points="237.445,558.485 256.343,558.485 "/>
<polyline clip-path="url(#clip040)" style="stroke:#adb2b7; stroke-linecap:round; stroke-linejoin:round; stroke-width:4; stroke-opacity:1; fill:none" points="237.445,164.294 256.343,164.294 "/>
<path clip-path="url(#clip040)" d="M47.6634 1360.21 L55.3023 1360.21 L55.3023 1333.85 L46.9921 1335.51 L46.9921 1331.25 L55.256 1329.59 L59.9319 1329.59 L59.9319 1360.21 L67.5707 1360.21 L67.5707 1364.15 L47.6634 1364.15 L47.6634 1360.21 Z" fill="#9eb1be" fill-rule="nonzero" fill-opacity="1" /><path clip-path="url(#clip040)" d="M87.0151 1332.67 Q83.404 1332.67 81.5753 1336.23 Q79.7697 1339.77 79.7697 1346.9 Q79.7697 1354.01 81.5753 1357.57 Q83.404 1361.11 87.0151 1361.11 Q90.6493 1361.11 92.4548 1357.57 Q94.2835 1354.01 94.2835 1346.9 Q94.2835 1339.77 92.4548 1336.23 Q90.6493 1332.67 87.0151 1332.67 M87.0151 1328.96 Q92.8252 1328.96 95.8808 1333.57 Q98.9594 1338.15 98.9594 1346.9 Q98.9594 1355.63 95.8808 1360.24 Q92.8252 1364.82 87.0151 1364.82 Q81.2049 1364.82 78.1262 1360.24 Q75.0707 1355.63 75.0707 1346.9 Q75.0707 1338.15 78.1262 1333.57 Q81.2049 1328.96 87.0151 1328.96 Z" fill="#9eb1be" fill-rule="nonzero" fill-opacity="1" /><path clip-path="url(#clip040)" d="M117.177 1332.67 Q113.566 1332.67 111.737 1336.23 Q109.932 1339.77 109.932 1346.9 Q109.932 1354.01 111.737 1357.57 Q113.566 1361.11 117.177 1361.11 Q120.811 1361.11 122.617 1357.57 Q124.445 1354.01 124.445 1346.9 Q124.445 1339.77 122.617 1336.23 Q120.811 1332.67 117.177 1332.67 M117.177 1328.96 Q122.987 1328.96 126.043 1333.57 Q129.121 1338.15 129.121 1346.9 Q129.121 1355.63 126.043 1360.24 Q122.987 1364.82 117.177 1364.82 Q111.367 1364.82 108.288 1360.24 Q105.233 1355.63 105.233 1346.9 Q105.233 1338.15 108.288 1333.57 Q111.367 1328.96 117.177 1328.96 Z" fill="#9eb1be" fill-rule="nonzero" fill-opacity="1" /><path clip-path="url(#clip040)" d="M147.339 1332.67 Q143.728 1332.67 141.899 1336.23 Q140.093 1339.77 140.093 1346.9 Q140.093 1354.01 141.899 1357.57 Q143.728 1361.11 147.339 1361.11 Q150.973 1361.11 152.779 1357.57 Q154.607 1354.01 154.607 1346.9 Q154.607 1339.77 152.779 1336.23 Q150.973 1332.67 147.339 1332.67 M147.339 1328.96 Q153.149 1328.96 156.205 1333.57 Q159.283 1338.15 159.283 1346.9 Q159.283 1355.63 156.205 1360.24 Q153.149 1364.82 147.339 1364.82 Q141.529 1364.82 138.45 1360.24 Q135.394 1355.63 135.394 1346.9 Q135.394 1338.15 138.45 1333.57 Q141.529 1328.96 147.339 1328.96 Z" fill="#9eb1be" fill-rule="nonzero" fill-opacity="1" /><path clip-path="url(#clip040)" d="M177.501 1332.67 Q173.89 1332.67 172.061 1336.23 Q170.255 1339.77 170.255 1346.9 Q170.255 1354.01 172.061 1357.57 Q173.89 1361.11 177.501 1361.11 Q181.135 1361.11 182.94 1357.57 Q184.769 1354.01 184.769 1346.9 Q184.769 1339.77 182.94 1336.23 Q181.135 1332.67 177.501 1332.67 M177.501 1328.96 Q183.311 1328.96 186.366 1333.57 Q189.445 1338.15 189.445 1346.9 Q189.445 1355.63 186.366 1360.24 Q183.311 1364.82 177.501 1364.82 Q171.691 1364.82 168.612 1360.24 Q165.556 1355.63 165.556 1346.9 Q165.556 1338.15 168.612 1333.57 Q171.691 1328.96 177.501 1328.96 Z" fill="#9eb1be" fill-rule="nonzero" fill-opacity="1" /><path clip-path="url(#clip040)" d="M47.6634 966.021 L55.3023 966.021 L55.3023 939.655 L46.9921 941.322 L46.9921 937.063 L55.256 935.396 L59.9319 935.396 L59.9319 966.021 L67.5707 966.021 L67.5707 969.956 L47.6634 969.956 L47.6634 966.021 Z" fill="#9eb1be" fill-rule="nonzero" fill-opacity="1" /><path clip-path="url(#clip040)" d="M77.8253 966.021 L85.4641 966.021 L85.4641 939.655 L77.154 941.322 L77.154 937.063 L85.4178 935.396 L90.0937 935.396 L90.0937 966.021 L97.7326 966.021 L97.7326 969.956 L77.8253 969.956 L77.8253 966.021 Z" fill="#9eb1be" fill-rule="nonzero" fill-opacity="1" /><path clip-path="url(#clip040)" d="M117.177 938.475 Q113.566 938.475 111.737 942.04 Q109.932 945.581 109.932 952.711 Q109.932 959.817 111.737 963.382 Q113.566 966.924 117.177 966.924 Q120.811 966.924 122.617 963.382 Q124.445 959.817 124.445 952.711 Q124.445 945.581 122.617 942.04 Q120.811 938.475 117.177 938.475 M117.177 934.771 Q122.987 934.771 126.043 939.378 Q129.121 943.961 129.121 952.711 Q129.121 961.438 126.043 966.044 Q122.987 970.627 117.177 970.627 Q111.367 970.627 108.288 966.044 Q105.233 961.438 105.233 952.711 Q105.233 943.961 108.288 939.378 Q111.367 934.771 117.177 934.771 Z" fill="#9eb1be" fill-rule="nonzero" fill-opacity="1" /><path clip-path="url(#clip040)" d="M147.339 938.475 Q143.728 938.475 141.899 942.04 Q140.093 945.581 140.093 952.711 Q140.093 959.817 141.899 963.382 Q143.728 966.924 147.339 966.924 Q150.973 966.924 152.779 963.382 Q154.607 959.817 154.607 952.711 Q154.607 945.581 152.779 942.04 Q150.973 938.475 147.339 938.475 M147.339 934.771 Q153.149 934.771 156.205 939.378 Q159.283 943.961 159.283 952.711 Q159.283 961.438 156.205 966.044 Q153.149 970.627 147.339 970.627 Q141.529 970.627 138.45 966.044 Q135.394 961.438 135.394 952.711 Q135.394 943.961 138.45 939.378 Q141.529 934.771 147.339 934.771 Z" fill="#9eb1be" fill-rule="nonzero" fill-opacity="1" /><path clip-path="url(#clip040)" d="M177.501 938.475 Q173.89 938.475 172.061 942.04 Q170.255 945.581 170.255 952.711 Q170.255 959.817 172.061 963.382 Q173.89 966.924 177.501 966.924 Q181.135 966.924 182.94 963.382 Q184.769 959.817 184.769 952.711 Q184.769 945.581 182.94 942.04 Q181.135 938.475 177.501 938.475 M177.501 934.771 Q183.311 934.771 186.366 939.378 Q189.445 943.961 189.445 952.711 Q189.445 961.438 186.366 966.044 Q183.311 970.627 177.501 970.627 Q171.691 970.627 168.612 966.044 Q165.556 961.438 165.556 952.711 Q165.556 943.961 168.612 939.378 Q171.691 934.771 177.501 934.771 Z" fill="#9eb1be" fill-rule="nonzero" fill-opacity="1" /><path clip-path="url(#clip040)" d="M47.6634 571.83 L55.3023 571.83 L55.3023 545.464 L46.9921 547.131 L46.9921 542.872 L55.256 541.205 L59.9319 541.205 L59.9319 571.83 L67.5707 571.83 L67.5707 575.765 L47.6634 575.765 L47.6634 571.83 Z" fill="#9eb1be" fill-rule="nonzero" fill-opacity="1" /><path clip-path="url(#clip040)" d="M81.0429 571.83 L97.3622 571.83 L97.3622 575.765 L75.4179 575.765 L75.4179 571.83 Q78.0799 569.075 82.6632 564.445 Q87.2697 559.793 88.4502 558.45 Q90.6956 555.927 91.5752 554.191 Q92.478 552.432 92.478 550.742 Q92.478 547.987 90.5336 546.251 Q88.6123 544.515 85.5104 544.515 Q83.3114 544.515 80.8577 545.279 Q78.4271 546.043 75.6494 547.594 L75.6494 542.872 Q78.4734 541.737 80.9271 541.159 Q83.3808 540.58 85.4178 540.58 Q90.7882 540.58 93.9826 543.265 Q97.177 545.95 97.177 550.441 Q97.177 552.571 96.3669 554.492 Q95.5798 556.39 93.4734 558.983 Q92.8947 559.654 89.7928 562.871 Q86.691 566.066 81.0429 571.83 Z" fill="#9eb1be" fill-rule="nonzero" fill-opacity="1" /><path clip-path="url(#clip040)" d="M117.177 544.284 Q113.566 544.284 111.737 547.848 Q109.932 551.39 109.932 558.52 Q109.932 565.626 111.737 569.191 Q113.566 572.732 117.177 572.732 Q120.811 572.732 122.617 569.191 Q124.445 565.626 124.445 558.52 Q124.445 551.39 122.617 547.848 Q120.811 544.284 117.177 544.284 M117.177 540.58 Q122.987 540.58 126.043 545.186 Q129.121 549.77 129.121 558.52 Q129.121 567.246 126.043 571.853 Q122.987 576.436 117.177 576.436 Q111.367 576.436 108.288 571.853 Q105.233 567.246 105.233 558.52 Q105.233 549.77 108.288 545.186 Q111.367 540.58 117.177 540.58 Z" fill="#9eb1be" fill-rule="nonzero" fill-opacity="1" /><path clip-path="url(#clip040)" d="M147.339 544.284 Q143.728 544.284 141.899 547.848 Q140.093 551.39 140.093 558.52 Q140.093 565.626 141.899 569.191 Q143.728 572.732 147.339 572.732 Q150.973 572.732 152.779 569.191 Q154.607 565.626 154.607 558.52 Q154.607 551.39 152.779 547.848 Q150.973 544.284 147.339 544.284 M147.339 540.58 Q153.149 540.58 156.205 545.186 Q159.283 549.77 159.283 558.52 Q159.283 567.246 156.205 571.853 Q153.149 576.436 147.339 576.436 Q141.529 576.436 138.45 571.853 Q135.394 567.246 135.394 558.52 Q135.394 549.77 138.45 545.186 Q141.529 540.58 147.339 540.58 Z" fill="#9eb1be" fill-rule="nonzero" fill-opacity="1" /><path clip-path="url(#clip040)" d="M177.501 544.284 Q173.89 544.284 172.061 547.848 Q170.255 551.39 170.255 558.52 Q170.255 565.626 172.061 569.191 Q173.89 572.732 177.501 572.732 Q181.135 572.732 182.94 569.191 Q184.769 565.626 184.769 558.52 Q184.769 551.39 182.94 547.848 Q181.135 544.284 177.501 544.284 M177.501 540.58 Q183.311 540.58 186.366 545.186 Q189.445 549.77 189.445 558.52 Q189.445 567.246 186.366 571.853 Q183.311 576.436 177.501 576.436 Q171.691 576.436 168.612 571.853 Q165.556 567.246 165.556 558.52 Q165.556 549.77 168.612 545.186 Q171.691 540.58 177.501 540.58 Z" fill="#9eb1be" fill-rule="nonzero" fill-opacity="1" /><path clip-path="url(#clip040)" d="M47.6634 177.638 L55.3023 177.638 L55.3023 151.273 L46.9921 152.94 L46.9921 148.68 L55.256 147.014 L59.9319 147.014 L59.9319 177.638 L67.5707 177.638 L67.5707 181.574 L47.6634 181.574 L47.6634 177.638 Z" fill="#9eb1be" fill-rule="nonzero" fill-opacity="1" /><path clip-path="url(#clip040)" d="M91.1817 162.939 Q94.5382 163.657 96.4132 165.926 Q98.3113 168.194 98.3113 171.527 Q98.3113 176.643 94.7928 179.444 Q91.2743 182.245 84.7928 182.245 Q82.6169 182.245 80.3021 181.805 Q78.0105 181.388 75.5568 180.532 L75.5568 176.018 Q77.5012 177.152 79.816 177.731 Q82.1308 178.31 84.654 178.31 Q89.0521 178.31 91.3437 176.574 Q93.6585 174.838 93.6585 171.527 Q93.6585 168.472 91.5058 166.759 Q89.3762 165.023 85.5567 165.023 L81.529 165.023 L81.529 161.18 L85.7419 161.18 Q89.191 161.18 91.0197 159.814 Q92.8484 158.426 92.8484 155.833 Q92.8484 153.171 90.9502 151.759 Q89.0752 150.324 85.5567 150.324 Q83.6354 150.324 81.4364 150.74 Q79.2373 151.157 76.5984 152.037 L76.5984 147.87 Q79.2605 147.129 81.5753 146.759 Q83.9132 146.389 85.9734 146.389 Q91.2974 146.389 94.3993 148.819 Q97.5011 151.227 97.5011 155.347 Q97.5011 158.217 95.8576 160.208 Q94.2141 162.176 91.1817 162.939 Z" fill="#9eb1be" fill-rule="nonzero" fill-opacity="1" /><path clip-path="url(#clip040)" d="M117.177 150.092 Q113.566 150.092 111.737 153.657 Q109.932 157.199 109.932 164.328 Q109.932 171.435 111.737 175 Q113.566 178.541 117.177 178.541 Q120.811 178.541 122.617 175 Q124.445 171.435 124.445 164.328 Q124.445 157.199 122.617 153.657 Q120.811 150.092 117.177 150.092 M117.177 146.389 Q122.987 146.389 126.043 150.995 Q129.121 155.578 129.121 164.328 Q129.121 173.055 126.043 177.662 Q122.987 182.245 117.177 182.245 Q111.367 182.245 108.288 177.662 Q105.233 173.055 105.233 164.328 Q105.233 155.578 108.288 150.995 Q111.367 146.389 117.177 146.389 Z" fill="#9eb1be" fill-rule="nonzero" fill-opacity="1" /><path clip-path="url(#clip040)" d="M147.339 150.092 Q143.728 150.092 141.899 153.657 Q140.093 157.199 140.093 164.328 Q140.093 171.435 141.899 175 Q143.728 178.541 147.339 178.541 Q150.973 178.541 152.779 175 Q154.607 171.435 154.607 164.328 Q154.607 157.199 152.779 153.657 Q150.973 150.092 147.339 150.092 M147.339 146.389 Q153.149 146.389 156.205 150.995 Q159.283 155.578 159.283 164.328 Q159.283 173.055 156.205 177.662 Q153.149 182.245 147.339 182.245 Q141.529 182.245 138.45 177.662 Q135.394 173.055 135.394 164.328 Q135.394 155.578 138.45 150.995 Q141.529 146.389 147.339 146.389 Z" fill="#9eb1be" fill-rule="nonzero" fill-opacity="1" /><path clip-path="url(#clip040)" d="M177.501 150.092 Q173.89 150.092 172.061 153.657 Q170.255 157.199 170.255 164.328 Q170.255 171.435 172.061 175 Q173.89 178.541 177.501 178.541 Q181.135 178.541 182.94 175 Q184.769 171.435 184.769 164.328 Q184.769 157.199 182.94 153.657 Q181.135 150.092 177.501 150.092 M177.501 146.389 Q183.311 146.389 186.366 150.995 Q189.445 155.578 189.445 164.328 Q189.445 173.055 186.366 177.662 Q183.311 182.245 177.501 182.245 Q171.691 182.245 168.612 177.662 Q165.556 173.055 165.556 164.328 Q165.556 155.578 168.612 150.995 Q171.691 146.389 177.501 146.389 Z" fill="#9eb1be" fill-rule="nonzero" fill-opacity="1" /><path clip-path="url(#clip040)" d="M257.237 14.3981 L249.308 35.8968 L265.194 35.8968 L257.237 14.3981 M253.938 8.64 L260.564 8.64 L277.028 51.84 L270.952 51.84 L267.017 40.7579 L247.543 40.7579 L243.608 51.84 L237.445 51.84 L253.938 8.64 Z" fill="#adb2b7" fill-rule="nonzero" fill-opacity="1" /><path clip-path="url(#clip040)" d="M305.385 20.677 L305.385 25.6538 Q303.128 24.4096 300.842 23.802 Q298.585 23.1654 296.27 23.1654 Q291.091 23.1654 288.226 26.464 Q285.361 29.7336 285.361 35.6653 Q285.361 41.597 288.226 44.8956 Q291.091 48.1653 296.27 48.1653 Q298.585 48.1653 300.842 47.5576 Q303.128 46.921 305.385 45.6768 L305.385 50.5958 Q303.157 51.6375 300.755 52.1583 Q298.382 52.6791 295.691 52.6791 Q288.371 52.6791 284.059 48.0784 Q279.748 43.4778 279.748 35.6653 Q279.748 27.7371 284.088 23.1943 Q288.458 18.6515 296.039 18.6515 Q298.498 18.6515 300.842 19.1724 Q303.185 19.6642 305.385 20.677 Z" fill="#adb2b7" fill-rule="nonzero" fill-opacity="1" /><path clip-path="url(#clip040)" d="M337.965 20.677 L337.965 25.6538 Q335.708 24.4096 333.423 23.802 Q331.166 23.1654 328.851 23.1654 Q323.671 23.1654 320.807 26.464 Q317.942 29.7336 317.942 35.6653 Q317.942 41.597 320.807 44.8956 Q323.671 48.1653 328.851 48.1653 Q331.166 48.1653 333.423 47.5576 Q335.708 46.921 337.965 45.6768 L337.965 50.5958 Q335.737 51.6375 333.336 52.1583 Q330.963 52.6791 328.272 52.6791 Q320.952 52.6791 316.64 48.0784 Q312.329 43.4778 312.329 35.6653 Q312.329 27.7371 316.669 23.1943 Q321.038 18.6515 328.619 18.6515 Q331.079 18.6515 333.423 19.1724 Q335.766 19.6642 337.965 20.677 Z" fill="#adb2b7" fill-rule="nonzero" fill-opacity="1" /><path clip-path="url(#clip040)" d="M359.782 23.1654 Q355.5 23.1654 353.012 26.5218 Q350.523 29.8494 350.523 35.6653 Q350.523 41.4813 352.983 44.8377 Q355.471 48.1653 359.782 48.1653 Q364.036 48.1653 366.524 44.8088 Q369.013 41.4523 369.013 35.6653 Q369.013 29.9072 366.524 26.5508 Q364.036 23.1654 359.782 23.1654 M359.782 18.6515 Q366.727 18.6515 370.691 23.1654 Q374.655 27.6792 374.655 35.6653 Q374.655 43.6225 370.691 48.1653 Q366.727 52.6791 359.782 52.6791 Q352.809 52.6791 348.845 48.1653 Q344.91 43.6225 344.91 35.6653 Q344.91 27.6792 348.845 23.1654 Q352.809 18.6515 359.782 18.6515 Z" fill="#adb2b7" fill-rule="nonzero" fill-opacity="1" /><path clip-path="url(#clip040)" d="M382.93 39.0507 L382.93 19.4328 L388.254 19.4328 L388.254 38.8482 Q388.254 43.4488 390.048 45.7636 Q391.842 48.0495 395.43 48.0495 Q399.742 48.0495 402.23 45.3007 Q404.747 42.5519 404.747 37.8065 L404.747 19.4328 L410.071 19.4328 L410.071 51.84 L404.747 51.84 L404.747 46.8632 Q402.809 49.8145 400.234 51.2613 Q397.687 52.6791 394.302 52.6791 Q388.717 52.6791 385.824 49.2069 Q382.93 45.7347 382.93 39.0507 M396.327 18.6515 L396.327 18.6515 Z" fill="#adb2b7" fill-rule="nonzero" fill-opacity="1" /><path clip-path="url(#clip040)" d="M447.976 32.2799 L447.976 51.84 L442.652 51.84 L442.652 32.4535 Q442.652 27.8529 440.858 25.567 Q439.064 23.2811 435.476 23.2811 Q431.165 23.2811 428.677 26.03 Q426.188 28.7788 426.188 33.5241 L426.188 51.84 L420.835 51.84 L420.835 19.4328 L426.188 19.4328 L426.188 24.4675 Q428.098 21.545 430.673 20.0983 Q433.277 18.6515 436.663 18.6515 Q442.247 18.6515 445.112 22.1237 Q447.976 25.567 447.976 32.2799 Z" fill="#adb2b7" fill-rule="nonzero" fill-opacity="1" /><path clip-path="url(#clip040)" d="M463.862 10.2314 L463.862 19.4328 L474.828 19.4328 L474.828 23.5705 L463.862 23.5705 L463.862 41.163 Q463.862 45.1271 464.932 46.2555 Q466.032 47.384 469.359 47.384 L474.828 47.384 L474.828 51.84 L469.359 51.84 Q463.196 51.84 460.852 49.5541 Q458.509 47.2393 458.509 41.163 L458.509 23.5705 L454.602 23.5705 L454.602 19.4328 L458.509 19.4328 L458.509 10.2314 L463.862 10.2314 Z" fill="#adb2b7" fill-rule="nonzero" fill-opacity="1" /><polyline clip-path="url(#clip041)" style="stroke:#bbbb00; stroke-linecap:round; stroke-linejoin:round; stroke-width:4; stroke-opacity:1; fill:none" points="237.445,1346.87 241.5,1346.87 245.554,1346.87 249.609,1346.87 253.664,1346.87 257.718,1346.87 261.773,1346.87 265.828,1346.87 269.882,1346.87 273.937,1346.87 277.992,1346.87 282.046,1346.87 286.101,1346.87 290.156,1346.87 294.211,1346.87 298.265,1346.87 302.32,1346.87 306.375,1346.87 310.429,1346.87 314.484,1346.87 318.539,1346.87 322.593,1346.87 326.648,1346.87 330.703,1346.87 330.703,1351.71 334.757,1351.71 334.757,1366.22 338.812,1366.22 338.812,1371.19 342.867,1371.19 342.867,1394.57 346.921,1394.57 350.976,1394.57 355.031,1394.57 359.085,1394.57 363.14,1394.57 367.195,1394.57 371.249,1394.57 371.249,1399.39 375.304,1399.39 375.304,1413.4 379.359,1413.4 379.359,1432.51 383.413,1432.51 383.413,1450.02 387.468,1450.02 387.468,1454.46 391.523,1454.46 391.523,1461.01 395.577,1461.01 395.577,1490.33 399.632,1490.33 403.687,1490.33 407.741,1490.33 407.741,1495.09 411.796,1495.09 411.796,1488.62 415.851,1488.62 415.851,1467.79 419.905,1467.79 419.905,1439.42 423.96,1439.42 423.96,1394.03 428.015,1394.03 428.015,1356.54 432.069,1356.54 432.069,1368.34 436.124,1368.34 436.124,1334.61 440.179,1334.61 440.179,1318.03 444.233,1318.03 444.233,1300.85 448.288,1300.85 448.288,1313.77 452.343,1313.77 452.343,1313.59 456.397,1313.59 456.397,1338.51 460.452,1338.51 460.452,1305.98 464.507,1305.98 464.507,1313.26 468.562,1313.26 468.562,1307.78 472.616,1307.78 472.616,1286.4 476.671,1286.4 476.671,1231.24 480.726,1231.24 480.726,1197.73 484.78,1197.73 484.78,1200.48 488.835,1200.48 488.835,1157.37 492.89,1157.37 492.89,1132.56 496.944,1132.56 496.944,1094.09 500.999,1094.09 500.999,1106.97 505.054,1106.97 505.054,1101.82 509.108,1101.82 509.108,1050.75 513.163,1050.75 513.163,1042.36 517.218,1042.36 517.218,1052.18 521.272,1052.18 521.272,1030.98 525.327,1030.98 525.327,1031.85 529.382,1031.85 529.382,1020.41 533.436,1020.41 533.436,1038.09 537.491,1038.09 537.491,1035.59 541.546,1035.59 541.546,1002.81 545.6,1002.81 545.6,995.187 549.655,995.187 549.655,988.656 553.71,988.656 553.71,985.512 557.764,985.512 557.764,982.19 561.819,982.19 561.819,949.236 565.874,949.236 565.874,941.184 569.928,941.184 569.928,956.786 573.983,956.786 573.983,940.735 578.038,940.735 578.038,926.958 582.092,926.958 582.092,965.483 586.147,965.483 586.147,966.397 590.202,966.397 590.202,952.58 594.256,952.58 594.256,968.403 598.311,968.403 598.311,991.683 602.366,991.683 606.42,991.683 606.42,996.659 610.475,996.659 610.475,989.031 614.53,989.031 614.53,1043.62 618.584,1043.62 618.584,1048.6 622.639,1048.6 622.639,1039.41 626.694,1039.41 626.694,1056.48 630.748,1056.48 630.748,1051.08 634.803,1051.08 634.803,999.853 638.858,999.853 638.858,954.698 642.912,954.698 642.912,946.835 646.967,946.835 646.967,969.229 651.022,969.229 651.022,983.139 655.077,983.139 655.077,964.972 659.131,964.972 659.131,970.928 663.186,970.928 663.186,938.523 667.241,938.523 667.241,989.284 671.295,989.284 671.295,952.937 675.35,952.937 675.35,938.069 679.405,938.069 679.405,970.169 683.459,970.169 683.459,968.697 687.514,968.697 687.514,953.402 691.569,953.402 691.569,981.889 695.623,981.889 695.623,965.005 699.678,965.005 699.678,973.396 703.733,973.396 703.733,933.699 707.787,933.699 707.787,907.268 711.842,907.268 711.842,926.577 715.897,926.577 715.897,886.311 719.951,886.311 719.951,873.178 724.006,873.178 724.006,874.102 728.061,874.102 728.061,879.717 732.115,879.717 732.115,839.568 736.17,839.568 736.17,849.979 740.225,849.979 740.225,828.854 744.279,828.854 744.279,888.863 748.334,888.863 748.334,890.478 752.389,890.478 752.389,881.109 756.443,881.109 756.443,919.336 760.498,919.336 764.553,919.336 764.553,924.529 768.607,924.529 768.607,888.867 772.662,888.867 772.662,906.053 776.717,906.053 776.717,926.981 780.771,926.981 784.826,926.981 788.881,926.981 792.935,926.981 796.99,926.981 801.045,926.981 805.099,926.981 805.099,932.463 809.154,932.463 809.154,905.128 813.209,905.128 813.209,887.246 817.263,887.246 817.263,878.746 821.318,878.746 821.318,899.356 825.373,899.356 825.373,954.21 829.428,954.21 833.482,954.21 837.537,954.21 837.537,959.712 841.592,959.712 841.592,985.631 845.646,985.631 849.701,985.631 849.701,990.595 853.756,990.595 853.756,941.282 857.81,941.282 857.81,911.85 861.865,911.85 861.865,929.059 865.92,929.059 865.92,937.014 869.974,937.014 869.974,940.186 874.029,940.186 874.029,976.387 878.084,976.387 878.084,990.512 882.138,990.512 882.138,995.615 886.193,995.615 886.193,1000.42 890.248,1000.42 890.248,1003.18 894.302,1003.18 894.302,1054.2 898.357,1054.2 902.412,1054.2 906.466,1054.2 910.521,1054.2 914.576,1054.2 918.63,1054.2 922.685,1054.2 926.74,1054.2 930.794,1054.2 930.794,1059.06 934.849,1059.06 934.849,1058.13 938.904,1058.13 938.904,1121.48 942.958,1121.48 947.013,1121.48 951.068,1121.48 951.068,1126.41 955.122,1126.41 955.122,1107.49 959.177,1107.49 959.177,1157.64 963.232,1157.64 967.286,1157.64 971.341,1157.64 975.396,1157.64 975.396,1162.95 979.45,1162.95 979.45,1181.01 983.505,1181.01 987.56,1181.01 991.614,1181.01 995.669,1181.01 999.724,1181.01 999.724,1185.88 1003.78,1185.88 1003.78,1134.03 1007.83,1134.03 1007.83,1138.62 1011.89,1138.62 1011.89,1164.76 1015.94,1164.76 1015.94,1149.35 1020,1149.35 1020,1112.06 1024.05,1112.06 1024.05,1096.53 1028.11,1096.53 1028.11,1102.11 1032.16,1102.11 1032.16,1130.94 1036.22,1130.94 1036.22,1123.35 1040.27,1123.35 1040.27,1141.69 1044.33,1141.69 1044.33,1182.89 1048.38,1182.89 1052.43,1182.89 1056.49,1182.89 1060.54,1182.89 1060.54,1188.37 1064.6,1188.37 1064.6,1195.99 1068.65,1195.99 1068.65,1195.51 1072.71,1195.51 1072.71,1242.48 1076.76,1242.48 1076.76,1247.96 1080.82,1247.96 1080.82,1198.28 1084.87,1198.28 1084.87,1177.26 1088.93,1177.26 1088.93,1148.88 1092.98,1148.88 1092.98,1121.83 1097.04,1121.83 1097.04,1097.32 1101.09,1097.32 1101.09,1100.66 1105.15,1100.66 1105.15,1136.82 1109.2,1136.82 1109.2,1107.06 1113.25,1107.06 1113.25,1092.59 1117.31,1092.59 1117.31,1089.84 1121.36,1089.84 1121.36,1076.8 1125.42,1076.8 1125.42,1081.63 1129.47,1081.63 1129.47,1079.4 1133.53,1079.4 1133.53,1053.31 1137.58,1053.31 1137.58,1038.66 1141.64,1038.66 1141.64,990.585 1145.69,990.585 1145.69,955.502 1149.75,955.502 1149.75,921.168 1153.8,921.168 1153.8,923.38 1157.86,923.38 1157.86,958.925 1161.91,958.925 1161.91,908.152 1165.97,908.152 1165.97,929.71 1170.02,929.71 1170.02,919.827 1174.07,919.827 1174.07,938.266 1178.13,938.266 1178.13,939.672 1182.18,939.672 1182.18,927.032 1186.24,927.032 1186.24,913.932 1190.29,913.932 1190.29,909.788 1194.35,909.788 1194.35,883.481 1198.4,883.481 1198.4,921.235 1202.46,921.235 1202.46,940.736 1206.51,940.736 1206.51,970.535 1210.57,970.535 1214.62,970.535 1218.68,970.535 1218.68,975.718 1222.73,975.718 1222.73,986.716 1226.79,986.716 1226.79,990.887 1230.84,990.887 1230.84,996.025 1234.89,996.025 1234.89,1001.42 1238.95,1001.42 1238.95,966.59 1243,966.59 1243,961.396 1247.06,961.396 1247.06,988.839 1251.11,988.839 1251.11,972.484 1255.17,972.484 1255.17,958.976 1259.22,958.976 1259.22,976.821 1263.28,976.821 1263.28,976.913 1267.33,976.913 1267.33,1010 1271.39,1010 1275.44,1010 1279.5,1010 1279.5,1015.16 1283.55,1015.16 1283.55,1005.47 1287.61,1005.47 1287.61,972.197 1291.66,972.197 1291.66,999.154 1295.72,999.154 1295.72,971.315 1299.77,971.315 1299.77,1028.22 1303.82,1028.22 1307.88,1028.22 1311.93,1028.22 1315.99,1028.22 1315.99,1033.74 1320.04,1033.74 1320.04,1065.1 1324.1,1065.1 1324.1,1072.03 1328.15,1072.03 1328.15,1078.45 1332.21,1078.45 1332.21,1088.57 1336.26,1088.57 1340.32,1088.57 1340.32,1093.45 1344.37,1093.45 1344.37,1147.82 1348.43,1147.82 1352.48,1147.82 1356.54,1147.82 1360.59,1147.82 1364.64,1147.82 1368.7,1147.82 1368.7,1152.52 1372.75,1152.52 1372.75,1108.29 1376.81,1108.29 1376.81,1047.06 1380.86,1047.06 1380.86,1011.91 1384.92,1011.91 1384.92,1054.74 1388.97,1054.74 1388.97,1067.84 1393.03,1067.84 1393.03,1112.41 1397.08,1112.41 1397.08,1097.37 1401.14,1097.37 1401.14,1104.82 1405.19,1104.82 1405.19,1133.42 1409.25,1133.42 1413.3,1133.42 1417.36,1133.42 1417.36,1138.41 1421.41,1138.41 1421.41,1156.35 1425.46,1156.35 1429.52,1156.35 1433.57,1156.35 1437.63,1156.35 1441.68,1156.35 1445.74,1156.35 1449.79,1156.35 1453.85,1156.35 1457.9,1156.35 1461.96,1156.35 1466.01,1156.35 1470.07,1156.35 1470.07,1161.07 1474.12,1161.07 1474.12,1155.72 1478.18,1155.72 1478.18,1148.1 1482.23,1148.1 1482.23,1158.1 1486.28,1158.1 1486.28,1185.02 1490.34,1185.02 1490.34,1190.08 1494.39,1190.08 1494.39,1185.2 1498.45,1185.2 1498.45,1193.02 1502.5,1193.02 1502.5,1191.91 1506.56,1191.91 1506.56,1187.21 1510.61,1187.21 1510.61,1218.55 1514.67,1218.55 1514.67,1223.26 1518.72,1223.26 1518.72,1249.21 1522.78,1249.21 1522.78,1254.29 1526.83,1254.29 1526.83,1250.87 1530.89,1250.87 1530.89,1255.5 1534.94,1255.5 1534.94,1248.02 1539,1248.02 1539,1256.79 1543.05,1256.79 1543.05,1257.47 1547.1,1257.47 1547.1,1246.58 1551.16,1246.58 1551.16,1289.41 1555.21,1289.41 1555.21,1294.42 1559.27,1294.42 1559.27,1244.53 1563.32,1244.53 1563.32,1211.84 1567.38,1211.84 1567.38,1163.38 1571.43,1163.38 1571.43,1131.26 1575.49,1131.26 1575.49,1135.97 1579.54,1135.97 1579.54,1147.01 1583.6,1147.01 1583.6,1147.05 1587.65,1147.05 1587.65,1144.22 1591.71,1144.22 1591.71,1130.01 1595.76,1130.01 1595.76,1157.84 1599.82,1157.84 1599.82,1146.95 1603.87,1146.95 1603.87,1153.77 1607.92,1153.77 1607.92,1170.98 1611.98,1170.98 1611.98,1210.68 1616.03,1210.68 1616.03,1214.66 1620.09,1214.66 1620.09,1185.65 1624.14,1185.65 1624.14,1168.71 1628.2,1168.71 1628.2,1179.36 1632.25,1179.36 1632.25,1186.53 1636.31,1186.53 1636.31,1156.83 1640.36,1156.83 1640.36,1146.27 1644.42,1146.27 1644.42,1133.62 1648.47,1133.62 1648.47,1110.25 1652.53,1110.25 1652.53,1092 1656.58,1092 1656.58,1077.85 1660.64,1077.85 1660.64,1090.54 1664.69,1090.54 1664.69,1071.01 1668.75,1071.01 1668.75,1131.59 1672.8,1131.59 1672.8,1154.2 1676.85,1154.2 1680.91,1154.2 1684.96,1154.2 1689.02,1154.2 1689.02,1159.15 1693.07,1159.15 1693.07,1142.73 1697.13,1142.73 1697.13,1125.08 1701.18,1125.08 1701.18,1179.48 1705.24,1179.48 1709.29,1179.48 1713.35,1179.48 1717.4,1179.48 1717.4,1184.38 1721.46,1184.38 1721.46,1196.11 1725.51,1196.11 1725.51,1181.63 1729.57,1181.63 1729.57,1187.24 1733.62,1187.24 1733.62,1140.75 1737.67,1140.75 1737.67,1142.81 1741.73,1142.81 1741.73,1150.31 1745.78,1150.31 1745.78,1164.01 1749.84,1164.01 1749.84,1202.72 1753.89,1202.72 1753.89,1207.13 1757.95,1207.13 1757.95,1177.73 1762,1177.73 1762,1180.53 1766.06,1180.53 1766.06,1263.16 1770.11,1263.16 1774.17,1263.16 1774.17,1268.05 1778.22,1268.05 1778.22,1239.71 1782.28,1239.71 1782.28,1219.43 1786.33,1219.43 1786.33,1233.9 1790.39,1233.9 1790.39,1218.21 1794.44,1218.21 1794.44,1219.67 1798.49,1219.67 1798.49,1181.9 1802.55,1181.9 1802.55,1159.65 1806.6,1159.65 1806.6,1120.67 1810.66,1120.67 1810.66,1117.41 1814.71,1117.41 1814.71,1124.49 1818.77,1124.49 1818.77,1097.73 1822.82,1097.73 1822.82,1078.77 1826.88,1078.77 1826.88,1075.52 1830.93,1075.52 1830.93,1067.55 1834.99,1067.55 1834.99,1002.47 1839.04,1002.47 1839.04,981.909 1843.1,981.909 1843.1,952.532 1847.15,952.532 1847.15,983.776 1851.21,983.776 1851.21,967.636 1855.26,967.636 1855.26,959.365 1859.31,959.365 1859.31,963.179 1863.37,963.179 1863.37,978.755 1867.42,978.755 1867.42,936.589 1871.48,936.589 1871.48,909.067 1875.53,909.067 1875.53,930.981 1879.59,930.981 1879.59,910.966 1883.64,910.966 1883.64,858.098 1887.7,858.098 1887.7,871.903 1891.75,871.903 1891.75,895.937 1895.81,895.937 1895.81,853.549 1899.86,853.549 1899.86,859.026 1903.92,859.026 1903.92,884.796 1907.97,884.796 1907.97,888.43 1912.03,888.43 1912.03,907.005 1916.08,907.005 1916.08,906.763 1920.13,906.763 1920.13,959.85 1924.19,959.85 1924.19,964.815 1928.24,964.815 1928.24,941.061 1932.3,941.061 1932.3,912.145 1936.35,912.145 1936.35,933.029 1940.41,933.029 1940.41,882.216 1944.46,882.216 1944.46,857.208 1948.52,857.208 1948.52,854.881 1952.57,854.881 1952.57,869.813 1956.63,869.813 1956.63,870.355 1960.68,870.355 1960.68,875.339 1964.74,875.339 1964.74,892.254 1968.79,892.254 1968.79,857.644 1972.85,857.644 1972.85,914.865 1976.9,914.865 1976.9,925.205 1980.96,925.205 1980.96,949.394 1985.01,949.394 1989.06,949.394 1989.06,954.974 1993.12,954.974 1993.12,913.536 1997.17,913.536 1997.17,872.982 2001.23,872.982 2001.23,855.174 2005.28,855.174 2005.28,868.191 2009.34,868.191 2009.34,857.022 2013.39,857.022 2013.39,899.781 2017.45,899.781 2017.45,912.588 2021.5,912.588 2021.5,896.17 2025.56,896.17 2025.56,906.292 2029.61,906.292 2029.61,920.221 2033.67,920.221 2033.67,935.606 2037.72,935.606 2037.72,929.045 2041.78,929.045 2041.78,948.536 2045.83,948.536 2045.83,953.636 2049.88,953.636 2049.88,971.035 2053.94,971.035 2053.94,976.122 2057.99,976.122 2057.99,941.618 2062.05,941.618 2062.05,938.535 2066.1,938.535 2066.1,927.343 2070.16,927.343 2070.16,957.706 2074.21,957.706 2074.21,1012.79 2078.27,1012.79 2078.27,1000.75 2082.32,1000.75 2082.32,992.132 2086.38,992.132 2086.38,1013.79 2090.43,1013.79 2090.43,988.37 2094.49,988.37 2094.49,996.63 2098.54,996.63 2098.54,956.584 2102.6,956.584 2102.6,966.472 2106.65,966.472 2106.65,921.783 2110.7,921.783 2110.7,902.561 2114.76,902.561 2114.76,923.086 2118.81,923.086 2118.81,897.046 2122.87,897.046 2122.87,912.036 2126.92,912.036 2126.92,905.666 2130.98,905.666 2130.98,903.601 2135.03,903.601 2135.03,905.376 2139.09,905.376 2139.09,884.425 2143.14,884.425 2143.14,900.051 2147.2,900.051 2147.2,876.368 2151.25,876.368 2151.25,897.091 2155.31,897.091 2155.31,891.864 2159.36,891.864 2159.36,874.817 2163.42,874.817 2163.42,894.325 2167.47,894.325 2167.47,898.555 2171.52,898.555 2171.52,893.784 2175.58,893.784 2175.58,869.612 2179.63,869.612 2179.63,828.314 2183.69,828.314 2183.69,823.739 2187.74,823.739 2187.74,840.935 2191.8,840.935 2191.8,794.768 2195.85,794.768 2195.85,793.548 2199.91,793.548 2199.91,782.054 2203.96,782.054 2203.96,765.04 2208.02,765.04 2208.02,770.031 2212.07,770.031 2212.07,765.298 2216.13,765.298 2216.13,741.399 2220.18,741.399 2220.18,742.861 2224.24,742.861 2224.24,743.433 2228.29,743.433 2228.29,737.432 2232.34,737.432 2232.34,712.124 2236.4,712.124 2236.4,704.151 2240.45,704.151 2240.45,692.429 2244.51,692.429 2244.51,722.394 2248.56,722.394 2248.56,711.568 2252.62,711.568 2252.62,707.632 2256.67,707.632 2256.67,736.723 2260.73,736.723 2260.73,742.187 2264.78,742.187 2264.78,723.762 2268.84,723.762 2268.84,714.683 2272.89,714.683 2272.89,745.945 2276.95,745.945 2276.95,751.101 2281,751.101 2281,756.258 2285.06,756.258 2285.06,771.872 2289.11,771.872 2289.11,804.414 2293.16,804.414 2297.22,804.414 2301.27,804.414 2305.33,804.414 2305.33,809.734 2309.38,809.734 2309.38,774.439 2313.44,774.439 2313.44,763.405 2317.49,763.405 2317.49,758.974 2321.55,758.974 2321.55,748.794 2325.6,748.794 2325.6,774.58 2329.66,774.58 2329.66,742.978 2333.71,742.978 2333.71,725.184 2337.77,725.184 2337.77,737.75 2341.82,737.75 2341.82,770.256 2345.88,770.256 2345.88,718.947 2349.93,718.947 2349.93,698.658 2353.99,698.658 2353.99,682.158 2358.04,682.158 2358.04,671.563 2362.09,671.563 2362.09,713.599 2366.15,713.599 2366.15,682.612 2370.2,682.612 2370.2,638.224 2374.26,638.224 2374.26,681.19 2378.31,681.19 2378.31,697.556 2382.37,697.556 2382.37,692.875 2386.42,692.875 2386.42,670.853 2390.48,670.853 2390.48,688.542 2394.53,688.542 2394.53,666.183 2398.59,666.183 2398.59,669.058 2402.64,669.058 2402.64,643.263 2406.7,643.263 2406.7,652.561 2410.75,652.561 2410.75,648.471 2414.81,648.471 2414.81,626.537 2418.86,626.537 2418.86,596.26 2422.91,596.26 2422.91,602.671 2426.97,602.671 2426.97,610.927 2431.02,610.927 2431.02,632.652 2435.08,632.652 2435.08,622.716 2439.13,622.716 2439.13,606.069 2443.19,606.069 2443.19,585.41 2447.24,585.41 2447.24,571.855 2451.3,571.855 2451.3,582.005 2455.35,582.005 2455.35,552.989 2459.41,552.989 2459.41,545.771 2463.46,545.771 2463.46,569.654 2467.52,569.654 2467.52,571.099 2471.57,571.099 2471.57,586.339 2475.63,586.339 2475.63,617.828 2479.68,617.828 2483.73,617.828 2487.79,617.828 2487.79,622.991 2491.84,622.991 2491.84,572.521 2495.9,572.521 2495.9,566.932 2499.95,566.932 2499.95,516.979 2504.01,516.979 2504.01,549.9 2508.06,549.9 2508.06,557.236 2512.12,557.236 2512.12,553.095 2516.17,553.095 2516.17,507.221 2520.23,507.221 2520.23,543.546 2524.28,543.546 2524.28,549.172 2528.34,549.172 2528.34,566.493 2532.39,566.493 2532.39,584.503 2536.45,584.503 2536.45,569.407 2540.5,569.407 2540.5,548.738 2544.55,548.738 2544.55,522.837 2548.61,522.837 2548.61,500.538 2552.66,500.538 2552.66,507.777 2556.72,507.777 2556.72,499.126 2560.77,499.126 2560.77,487.303 2564.83,487.303 2564.83,525.946 2568.88,525.946 2568.88,541.502 2572.94,541.502 2576.99,541.502 2576.99,547.813 2581.05,547.813 2581.05,573.86 2585.1,573.86 2585.1,579.918 2589.16,579.918 2589.16,540.456 2593.21,540.456 2593.21,529.079 2597.27,529.079 2597.27,542.227 2601.32,542.227 2601.32,564.143 2605.37,564.143 2605.37,580.502 2609.43,580.502 2613.48,580.502 2613.48,586.413 2617.54,586.413 2617.54,562.143 2621.59,562.143 2621.59,593.432 2625.65,593.432 2625.65,645.884 2629.7,645.884 2629.7,651.269 2633.76,651.269 2633.76,636.134 2637.81,636.134 2637.81,649.876 2641.87,649.876 2641.87,641.523 2645.92,641.523 2645.92,605.068 2649.98,605.068 2649.98,567.728 2654.03,567.728 2654.03,567.944 2658.09,567.944 2658.09,537.257 2662.14,537.257 2662.14,524.094 2666.19,524.094 2666.19,500.608 2670.25,500.608 2670.25,472.81 2674.3,472.81 2674.3,462.344 2678.36,462.344 2678.36,450.247 2682.41,450.247 2682.41,460.287 2686.47,460.287 2686.47,466.96 2690.52,466.96 2690.52,417.709 2694.58,417.709 2694.58,436.745 2698.63,436.745 2698.63,419.428 2702.69,419.428 2702.69,373.561 2706.74,373.561 2706.74,348.367 2710.8,348.367 2710.8,357.765 2714.85,357.765 2714.85,320.791 2718.91,320.791 2718.91,361.408 2722.96,361.408 2722.96,403.689 2727.02,403.689 2727.02,436.311 2731.07,436.311 2731.07,466.253 2735.12,466.253 2739.18,466.253 2739.18,471.932 2743.23,471.932 2743.23,469.335 2747.29,469.335 2747.29,419.649 2751.34,419.649 2751.34,378.973 2755.4,378.973 2755.4,347.522 2759.45,347.522 2759.45,321.108 2763.51,321.108 2763.51,319.194 2767.56,319.194 2767.56,332.582 2771.62,332.582 2771.62,376.793 2775.67,376.793 2775.67,393.027 2779.73,393.027 2779.73,381.204 2783.78,381.204 2783.78,406.412 2787.84,406.412 2787.84,412.269 2791.89,412.269 2791.89,450.011 2795.94,450.011 2800,450.011 2800,455.677 2804.05,455.677 2804.05,546.377 2808.11,546.377 2808.11,574.251 2812.16,574.251 2816.22,574.251 2816.22,579.801 2820.27,579.801 2820.27,574.632 2824.33,574.632 2824.33,574.35 2828.38,574.35 2828.38,548.769 2832.44,548.769 2832.44,505.042 2836.49,505.042 2836.49,523.679 2840.55,523.679 2840.55,546.135 2844.6,546.135 2844.6,561.177 2848.66,561.177 2848.66,566.904 2852.71,566.904 2852.71,536.014 2856.76,536.014 2856.76,530.357 2860.82,530.357 2860.82,519.004 2864.87,519.004 2864.87,426.705 2868.93,426.705 2868.93,375.776 2872.98,375.776 2872.98,406.162 2877.04,406.162 2877.04,390.241 2881.09,390.241 2881.09,368.152 2885.15,368.152 2885.15,338.156 2889.2,338.156 2889.2,340.749 2893.26,340.749 2893.26,320.398 2897.31,320.398 2897.31,300.757 2901.37,300.757 2901.37,336.731 2905.42,336.731 2905.42,320.683 2909.48,320.683 2909.48,311.542 2913.53,311.542 2913.53,285.619 2917.58,285.619 2917.58,281.448 2921.64,281.448 2921.64,303.876 2925.69,303.876 2925.69,299.867 2929.75,299.867 2929.75,283.647 2933.8,283.647 2933.8,281.501 2937.86,281.501 2937.86,287.718 2941.91,287.718 2941.91,276.33 2945.97,276.33 2945.97,311.323 2950.02,311.323 2950.02,273.148 2954.08,273.148 2954.08,299.042 2958.13,299.042 2958.13,360.725 2962.19,360.725 2962.19,366.585 2966.24,366.585 2966.24,340.54 2970.3,340.54 2970.3,299.432 2974.35,299.432 2974.35,251.529 2978.4,251.529 2978.4,259.75 2982.46,259.75 2982.46,244.316 2986.51,244.316 2986.51,291.647 2990.57,291.647 2990.57,302.156 2994.62,302.156 2994.62,261.526 2998.68,261.526 2998.68,237.629 3002.73,237.629 3002.73,257.432 3006.79,257.432 3006.79,325.843 3010.84,325.843 3010.84,237.424 3014.9,237.424 3014.9,215.453 3018.95,215.453 3018.95,216.169 3023.01,216.169 3023.01,183.536 3027.06,183.536 3027.06,201.35 3031.12,201.35 3031.12,222.316 3035.17,222.316 3035.17,190.622 3039.23,190.622 3039.23,172.373 3043.28,172.373 3043.28,166.785 3047.33,166.785 3047.33,168.181 3051.39,168.181 3051.39,161.829 3055.44,161.829 3055.44,149.817 3059.5,149.817 3059.5,116.123 3063.55,116.123 3063.55,156.543 3067.61,156.543 3067.61,142.339 3071.66,142.339 3071.66,100.527 3075.72,100.527 3075.72,95.3921 3079.77,95.3921 3079.77,115.643 3083.83,115.643 3083.83,140.882 3087.88,140.882 3087.88,221.979 3091.94,221.979 3091.94,228.256 3095.99,228.256 3095.99,186.557 3100.05,186.557 3100.05,254.483 3104.1,254.483 3104.1,221.883 3108.15,221.883 3108.15,229.519 3112.21,229.519 3112.21,207.609 3116.26,207.609 3116.26,185.001 3120.32,185.001 3120.32,201.817 3124.37,201.817 3124.37,276.439 3128.43,276.439 3132.48,276.439 3132.48,282.191 3136.54,282.191 3136.54,282.536 3140.59,282.536 3140.59,279.667 3144.65,279.667 3144.65,250.769 3148.7,250.769 3148.7,249.337 3152.76,249.337 3152.76,154.46 "/>
<path clip-path="url(#clip040)" d="M334.622 245.729 L769.995 245.729 L769.995 142.049 L334.622 142.049  Z" fill="#282c34" fill-rule="evenodd" fill-opacity="1"/>
<polyline clip-path="url(#clip040)" style="stroke:#000000; stroke-linecap:round; stroke-linejoin:round; stroke-width:4; stroke-opacity:0; fill:none" points="334.622,245.729 769.995,245.729 769.995,142.049 334.622,142.049 334.622,245.729 "/>
<polyline clip-path="url(#clip040)" style="stroke:#bbbb00; stroke-linecap:round; stroke-linejoin:round; stroke-width:4; stroke-opacity:1; fill:none" points="367.014,193.889 561.368,193.889 "/>
<path clip-path="url(#clip040)" d="M593.761 176.609 L615.613 176.609 L615.613 180.544 L598.437 180.544 L598.437 190.775 L614.895 190.775 L614.895 194.71 L598.437 194.71 L598.437 207.233 L616.029 207.233 L616.029 211.169 L593.761 211.169 L593.761 176.609 Z" fill="#adb2b7" fill-rule="nonzero" fill-opacity="1" /><path clip-path="url(#clip040)" d="M626.075 198.229 Q626.075 202.928 627.997 205.613 Q629.941 208.275 633.321 208.275 Q636.7 208.275 638.645 205.613 Q640.589 202.928 640.589 198.229 Q640.589 193.53 638.645 190.868 Q636.7 188.183 633.321 188.183 Q629.941 188.183 627.997 190.868 Q626.075 193.53 626.075 198.229 M640.589 207.28 Q639.247 209.595 637.187 210.729 Q635.15 211.84 632.279 211.84 Q627.58 211.84 624.617 208.09 Q621.677 204.34 621.677 198.229 Q621.677 192.118 624.617 188.368 Q627.58 184.618 632.279 184.618 Q635.15 184.618 637.187 185.752 Q639.247 186.863 640.589 189.178 L640.589 185.243 L644.849 185.243 L644.849 221.03 L640.589 221.03 L640.589 207.28 Z" fill="#adb2b7" fill-rule="nonzero" fill-opacity="1" /><path clip-path="url(#clip040)" d="M653.182 200.937 L653.182 185.243 L657.441 185.243 L657.441 200.775 Q657.441 204.456 658.876 206.308 Q660.311 208.136 663.182 208.136 Q666.631 208.136 668.622 205.937 Q670.635 203.738 670.635 199.942 L670.635 185.243 L674.895 185.243 L674.895 211.169 L670.635 211.169 L670.635 207.187 Q669.085 209.548 667.024 210.706 Q664.987 211.84 662.279 211.84 Q657.811 211.84 655.497 209.062 Q653.182 206.284 653.182 200.937 M663.899 184.618 L663.899 184.618 Z" fill="#adb2b7" fill-rule="nonzero" fill-opacity="1" /><path clip-path="url(#clip040)" d="M683.668 185.243 L687.927 185.243 L687.927 211.169 L683.668 211.169 L683.668 185.243 M683.668 175.15 L687.927 175.15 L687.927 180.544 L683.668 180.544 L683.668 175.15 Z" fill="#adb2b7" fill-rule="nonzero" fill-opacity="1" /><path clip-path="url(#clip040)" d="M701.052 177.882 L701.052 185.243 L709.825 185.243 L709.825 188.553 L701.052 188.553 L701.052 202.627 Q701.052 205.798 701.908 206.701 Q702.788 207.604 705.45 207.604 L709.825 207.604 L709.825 211.169 L705.45 211.169 Q700.52 211.169 698.645 209.34 Q696.77 207.488 696.77 202.627 L696.77 188.553 L693.645 188.553 L693.645 185.243 L696.77 185.243 L696.77 177.882 L701.052 177.882 Z" fill="#adb2b7" fill-rule="nonzero" fill-opacity="1" /><path clip-path="url(#clip040)" d="M726.214 213.576 Q724.408 218.206 722.695 219.618 Q720.982 221.03 718.112 221.03 L714.709 221.03 L714.709 217.465 L717.209 217.465 Q718.968 217.465 719.941 216.632 Q720.913 215.798 722.093 212.696 L722.857 210.752 L712.371 185.243 L716.885 185.243 L724.987 205.521 L733.089 185.243 L737.603 185.243 L726.214 213.576 Z" fill="#adb2b7" fill-rule="nonzero" fill-opacity="1" /></svg>
